<?xml version="1.0" encoding="UTF-8"?>
<!DOCTYPE svg PUBLIC "-//W3C//DTD SVG 1.1//EN" "http://www.w3.org/Graphics/SVG/1.1/DTD/svg11.dtd">
<!-- Creator: CorelDRAW 2020 (64-Bit) -->
<svg xmlns="http://www.w3.org/2000/svg" xml:space="preserve" width="297mm" height="210mm" version="1.1" style="shape-rendering:geometricPrecision; text-rendering:geometricPrecision; image-rendering:optimizeQuality; fill-rule:evenodd; clip-rule:evenodd"
viewBox="0 0 29700 21000"
 xmlns:xlink="http://www.w3.org/1999/xlink"
 xmlns:xodm="http://www.corel.com/coreldraw/odm/2003">
 <defs>
  <style type="text/css">
   <![CDATA[
    .str0 {stroke:black;stroke-width:20;stroke-miterlimit:22.9256}
    .fil0 {fill:black}
    .fil3 {fill:white}
    .fil1 {fill:#6CE200;fill-rule:nonzero}
    .fil2 {fill:#7ED957;fill-rule:nonzero}
   ]]>
  </style>
 </defs>
 <g id="Слой_x0020_1">
  <metadata id="CorelCorpID_0Corel-Layer"/>
  <rect class="fil0 str0" x="34082.39" y="-2127.63" width="20274.3" height="19107.84"/>
  <path class="fil1" d="M42226.65 9891.09c32.9,-584.96 -332.51,-1120.14 -888.93,-1301.36 -105.7,-34.41 -216.16,-54.92 -328.08,-61.38 -344.63,-19.39 -676.14,96.45 -933.63,326.36 -20.14,17.98 -39.27,36.51 -58.1,55.6l-592.18 -423.79c110.01,-211.3 175.47,-445.21 189.11,-690.27 25.58,-452.12 -130.21,-881.65 -411.45,-1207.51l855.37 -847.78c105.46,76.01 223.94,136.97 352.66,178.89 105.68,34.43 216.08,55.15 328.08,61.39 344.55,19.6 676.06,-96.22 933.33,-326.23 257.49,-229.92 409.8,-546.25 429.39,-890.76 32.89,-584.86 -332.57,-1119.98 -889.2,-1301.27 -105.68,-34.42 -216.1,-55.04 -328.08,-61.39 -711.17,-40.13 -1322.33,505.96 -1362.82,1217.27 -17.29,306.74 75.15,599.67 247.3,835.03l-867.73 860.17c-137.34,-97.36 -290.57,-175.82 -456.74,-229.95 -139.06,-45.28 -284.21,-72.56 -431.53,-80.78 -453.34,-25.51 -889.63,127.14 -1228.23,429.46 -338.79,302.72 -539.32,718.81 -564.78,1172.17 -43.45,769.6 437.36,1473.79 1169.64,1712.28 139.27,45.35 284.49,72.4 431.96,80.92 453.1,25.44 889.38,-126.97 1228.13,-429.49 51.73,-46.23 99.57,-95.17 144.6,-146.46l585.63 419.05c-77.47,155.24 -123.54,325.93 -133.55,504.33 -33.12,584.89 332.59,1119.92 889.01,1301.15 105.68,34.41 216.08,55.13 328.08,61.37 344.55,19.61 676.13,-96.44 933.34,-326.22 257.49,-229.93 409.79,-546.26 429.4,-890.8z"/>
  <path class="fil1" d="M39411.38 7784.98c-46.28,824.87 -753.02,1456.07 -1578.04,1409.5 -825.1,-46.36 -1456.17,-753.05 -1409.54,-1578.06 46.33,-825.09 753.11,-1456.03 1578.14,-1409.69 825.02,46.55 1456.01,753.22 1409.44,1578.25z"/>
  <path class="fil1" d="M38223.41 7416.39l3009.97 -2983.01c39.84,-39.75 40.13,-104.21 0.77,-144.18 -39.82,-40.02 -104.26,-40.27 -144.29,-0.68l-3009.77 2983.1c-39.81,39.64 -40.3,103.99 -0.72,144.04 39.79,40.09 104.23,40.36 144.04,0.71l0 0.02z"/>
  <path class="fil1" d="M37431.19 7435.03l3446.37 2465.93c45.77,32.76 109.4,22.3 141.94,-23.52 32.76,-45.76 22.3,-109.39 -23.45,-142.15l-3446.37 -2465.93c-45.77,-32.76 -109.4,-22.3 -142.17,23.44 -32.76,45.77 -22.07,109.47 23.68,142.23z"/>
  <path class="fil1" d="M41898.84 4752.78c-34.02,600.03 -547.79,1059.1 -1147.86,1025.06 -600.14,-33.79 -1059.2,-547.57 -1025.4,-1147.71 33.98,-599.94 547.73,-1058.97 1147.87,-1025.13 600.13,33.88 1059.17,547.68 1025.39,1147.78z"/>
  <path class="fil1" d="M42023.27 9879.61c-33.82,600.14 -547.79,1059.13 -1147.88,1025.12 -600.14,-33.82 -1058.91,-547.72 -1025.18,-1147.66 33.81,-600.14 547.79,-1059.13 1147.94,-1025.33 600.14,33.81 1058.92,547.72 1025.12,1147.87z"/>
  <polygon class="fil2" points="44715.15,8360.35 44422.02,8360.35 44422.02,6337.46 44715.15,6337.46 "/>
  <polygon class="fil2" points="46606.09,6598.37 45964.06,6598.37 45964.06,8360.35 45667.95,8360.35 45667.95,6598.37 45031.75,6598.37 45031.75,6337.46 46606.09,6337.46 "/>
  <path class="fil2" d="M47640.93 7524.82l-410.42 -114.37c-144.63,-39.05 -247.75,-105.03 -309.29,-197.85 -61.58,-92.84 -92.37,-218.44 -92.37,-376.76 0,-115.31 12.2,-208.6 36.67,-279.97 24.42,-71.34 66.9,-125.59 127.52,-162.71 60.58,-37.12 127.98,-61.59 202.29,-73.28 74.28,-11.7 173.96,-17.58 299.03,-17.58 238.44,0 441.68,20.52 609.78,61.53l-17.58 214.04c-283.4,-9.78 -476.91,-14.64 -580.48,-14.64 -152.45,0 -254.08,15.14 -304.89,45.42 -50.8,30.29 -76.22,108.93 -76.22,236 0,99.67 18.08,170.02 54.25,211.04 36.14,41.07 99.15,73.34 189.05,96.79l401.67 111.41c150.51,41.08 256.55,107.51 318.09,199.34 61.53,91.87 92.33,216.97 92.33,375.27 0,222.79 -50.8,371.33 -152.45,445.62 -101.63,74.31 -280.47,111.42 -536.47,111.42 -214.99,0 -427.09,-19.55 -636.2,-58.64l20.51 -216.96c304.94,9.77 512.12,14.69 621.56,14.69 152.45,-1.97 254.54,-21.53 306.35,-58.65 51.81,-37.13 77.68,-117.29 77.68,-240.41 0,-103.56 -17.56,-175.43 -52.76,-215.49 -35.2,-40.06 -97.75,-71.81 -187.65,-95.26z"/>
  <path class="fil2" d="M48570.25 8360.35l0 -2022.89c256.02,-17.58 499.35,-26.39 730,-26.39 297.07,0 504.72,75.26 622.98,225.72 118.24,150.51 177.35,421.2 177.35,812.09 0,390.91 -59.11,661.61 -177.35,812.08 -118.26,150.52 -325.91,225.78 -622.98,225.78 -230.65,0 -473.98,-8.81 -730,-26.39zm293.13 -1791.31l0 1553.84c125.1,5.86 270.7,8.81 436.87,8.81 183.69,0 311.21,-56.68 382.57,-170.07 71.35,-113.35 107.01,-317.59 107.01,-612.7 0,-295.11 -35.66,-499.35 -107.01,-612.75 -71.36,-113.34 -198.88,-170.02 -382.57,-170.02 -58.64,0 -136.34,0.47 -233.07,1.44 -96.78,0.95 -164.69,1.45 -203.8,1.45z"/>
  <path class="fil2" d="M51240.94 7524.82l-410.42 -114.37c-144.63,-39.05 -247.75,-105.03 -309.28,-197.85 -61.59,-92.84 -92.38,-218.44 -92.38,-376.76 0,-115.31 12.2,-208.6 36.67,-279.97 24.42,-71.34 66.9,-125.59 127.52,-162.71 60.58,-37.12 127.98,-61.59 202.29,-73.28 74.29,-11.7 173.96,-17.58 299.04,-17.58 238.43,0 441.67,20.52 609.77,61.53l-17.58 214.04c-283.4,-9.78 -476.91,-14.64 -580.48,-14.64 -152.45,0 -254.08,15.14 -304.89,45.42 -50.8,30.29 -76.22,108.93 -76.22,236 0,99.67 18.08,170.02 54.25,211.04 36.15,41.07 99.15,73.34 189.05,96.79l401.67 111.41c150.51,41.08 256.56,107.51 318.09,199.34 61.53,91.87 92.34,216.97 92.34,375.27 0,222.79 -50.81,371.33 -152.46,445.62 -101.63,74.31 -280.47,111.42 -536.47,111.42 -214.99,0 -427.09,-19.55 -636.2,-58.64l20.51 -216.96c304.94,9.77 512.13,14.69 621.56,14.69 152.45,-1.97 254.55,-21.53 306.36,-58.65 51.81,-37.13 77.68,-117.29 77.68,-240.41 0,-103.56 -17.57,-175.43 -52.77,-215.49 -35.19,-40.06 -97.75,-71.81 -187.65,-95.26z"/>
  <rect class="fil3 str0" x="-23072.82" y="-1286.1" width="20274.3" height="19107.84"/>
  <path class="fil1" d="M11812.01 13272.62c32.9,-584.96 -332.51,-1120.14 -888.93,-1301.36 -105.7,-34.41 -216.16,-54.92 -328.08,-61.38 -344.63,-19.39 -676.14,96.45 -933.63,326.36 -20.14,17.98 -39.27,36.51 -58.1,55.6l-592.18 -423.79c110.01,-211.3 175.47,-445.21 189.11,-690.27 25.58,-452.12 -130.21,-881.65 -411.45,-1207.51l855.37 -847.78c105.46,76.01 223.94,136.97 352.66,178.89 105.68,34.43 216.08,55.15 328.08,61.39 344.55,19.6 676.06,-96.22 933.33,-326.23 257.49,-229.92 409.8,-546.25 429.39,-890.76 32.89,-584.86 -332.57,-1119.98 -889.2,-1301.27 -105.68,-34.42 -216.1,-55.04 -328.08,-61.39 -711.17,-40.13 -1322.33,505.96 -1362.82,1217.27 -17.29,306.74 75.15,599.67 247.3,835.03l-867.73 860.17c-137.34,-97.36 -290.57,-175.82 -456.74,-229.95 -139.06,-45.28 -284.21,-72.56 -431.53,-80.78 -453.34,-25.51 -889.63,127.14 -1228.23,429.46 -338.79,302.72 -539.32,718.81 -564.78,1172.17 -43.45,769.6 437.36,1473.79 1169.64,1712.28 139.27,45.35 284.49,72.4 431.96,80.92 453.1,25.44 889.38,-126.97 1228.13,-429.49 51.73,-46.23 99.57,-95.17 144.6,-146.46l585.63 419.05c-77.47,155.24 -123.54,325.93 -133.55,504.33 -33.12,584.89 332.59,1119.92 889.01,1301.15 105.68,34.41 216.08,55.13 328.08,61.37 344.55,19.61 676.13,-96.44 933.34,-326.22 257.49,-229.93 409.79,-546.26 429.4,-890.8z"/>
  <path class="fil1" d="M8996.74 11166.51c-46.28,824.87 -753.02,1456.07 -1578.04,1409.5 -825.1,-46.36 -1456.17,-753.05 -1409.54,-1578.06 46.33,-825.09 753.11,-1456.03 1578.14,-1409.69 825.02,46.55 1456.01,753.22 1409.44,1578.25z"/>
  <path class="fil1" d="M7808.77 10797.92l3009.97 -2983.01c39.84,-39.75 40.13,-104.21 0.77,-144.18 -39.82,-40.02 -104.26,-40.27 -144.29,-0.68l-3009.77 2983.1c-39.81,39.64 -40.3,103.99 -0.72,144.04 39.79,40.09 104.23,40.36 144.04,0.71l0 0.02z"/>
  <path class="fil1" d="M7016.55 10816.56l3446.37 2465.93c45.77,32.76 109.4,22.3 141.94,-23.52 32.76,-45.76 22.3,-109.39 -23.45,-142.15l-3446.37 -2465.93c-45.77,-32.76 -109.4,-22.3 -142.17,23.44 -32.76,45.77 -22.07,109.47 23.68,142.23z"/>
  <path class="fil1" d="M11484.2 8134.31c-34.02,600.03 -547.79,1059.1 -1147.86,1025.06 -600.14,-33.79 -1059.2,-547.57 -1025.4,-1147.71 33.98,-599.94 547.73,-1058.97 1147.87,-1025.13 600.13,33.88 1059.17,547.68 1025.39,1147.78z"/>
  <path class="fil1" d="M11608.63 13261.14c-33.82,600.14 -547.79,1059.13 -1147.88,1025.12 -600.14,-33.82 -1058.91,-547.72 -1025.18,-1147.66 33.81,-600.14 547.79,-1059.13 1147.94,-1025.33 600.14,33.81 1058.92,547.72 1025.12,1147.87z"/>
  <polygon class="fil2" points="14300.51,11741.88 14007.38,11741.88 14007.38,9718.99 14300.51,9718.99 "/>
  <polygon class="fil2" points="16191.45,9979.9 15549.42,9979.9 15549.42,11741.88 15253.31,11741.88 15253.31,9979.9 14617.11,9979.9 14617.11,9718.99 16191.45,9718.99 "/>
  <path class="fil2" d="M17226.29 10906.35l-410.42 -114.37c-144.63,-39.05 -247.75,-105.03 -309.29,-197.85 -61.58,-92.84 -92.37,-218.44 -92.37,-376.76 0,-115.31 12.2,-208.6 36.67,-279.97 24.42,-71.34 66.9,-125.59 127.52,-162.71 60.58,-37.12 127.98,-61.59 202.29,-73.28 74.28,-11.7 173.96,-17.58 299.03,-17.58 238.44,0 441.68,20.52 609.78,61.53l-17.58 214.04c-283.4,-9.78 -476.91,-14.64 -580.48,-14.64 -152.45,0 -254.08,15.14 -304.89,45.42 -50.8,30.29 -76.22,108.93 -76.22,236 0,99.67 18.08,170.02 54.25,211.04 36.14,41.07 99.15,73.34 189.05,96.79l401.67 111.41c150.51,41.08 256.55,107.51 318.09,199.34 61.53,91.87 92.33,216.97 92.33,375.27 0,222.79 -50.8,371.33 -152.45,445.62 -101.63,74.31 -280.47,111.42 -536.47,111.42 -214.99,0 -427.09,-19.55 -636.2,-58.64l20.51 -216.96c304.94,9.77 512.12,14.69 621.56,14.69 152.45,-1.97 254.54,-21.53 306.35,-58.65 51.81,-37.13 77.68,-117.29 77.68,-240.41 0,-103.56 -17.56,-175.43 -52.76,-215.49 -35.2,-40.06 -97.75,-71.81 -187.65,-95.26z"/>
  <path class="fil2" d="M18155.61 11741.88l0 -2022.89c256.02,-17.58 499.35,-26.39 730,-26.39 297.07,0 504.72,75.26 622.98,225.72 118.24,150.51 177.35,421.2 177.35,812.09 0,390.91 -59.11,661.61 -177.35,812.08 -118.26,150.52 -325.91,225.78 -622.98,225.78 -230.65,0 -473.98,-8.81 -730,-26.39zm293.13 -1791.31l0 1553.84c125.1,5.86 270.7,8.81 436.87,8.81 183.69,0 311.21,-56.68 382.57,-170.07 71.35,-113.35 107.01,-317.59 107.01,-612.7 0,-295.11 -35.66,-499.35 -107.01,-612.75 -71.36,-113.34 -198.88,-170.02 -382.57,-170.02 -58.64,0 -136.34,0.47 -233.07,1.44 -96.78,0.95 -164.69,1.45 -203.8,1.45z"/>
  <path class="fil2" d="M20826.3 10906.35l-410.42 -114.37c-144.63,-39.05 -247.75,-105.03 -309.28,-197.85 -61.59,-92.84 -92.38,-218.44 -92.38,-376.76 0,-115.31 12.2,-208.6 36.67,-279.97 24.42,-71.34 66.9,-125.59 127.52,-162.71 60.58,-37.12 127.98,-61.59 202.29,-73.28 74.29,-11.7 173.96,-17.58 299.04,-17.58 238.43,0 441.67,20.52 609.77,61.53l-17.58 214.04c-283.4,-9.78 -476.91,-14.64 -580.48,-14.64 -152.45,0 -254.08,15.14 -304.89,45.42 -50.8,30.29 -76.22,108.93 -76.22,236 0,99.67 18.08,170.02 54.25,211.04 36.15,41.07 99.15,73.34 189.05,96.79l401.67 111.41c150.51,41.08 256.56,107.51 318.09,199.34 61.53,91.87 92.34,216.97 92.34,375.27 0,222.79 -50.81,371.33 -152.46,445.62 -101.63,74.31 -280.47,111.42 -536.47,111.42 -214.99,0 -427.09,-19.55 -636.2,-58.64l20.51 -216.96c304.94,9.77 512.13,14.69 621.56,14.69 152.45,-1.97 254.55,-21.53 306.36,-58.65 51.81,-37.13 77.68,-117.29 77.68,-240.41 0,-103.56 -17.57,-175.43 -52.77,-215.49 -35.19,-40.06 -97.75,-71.81 -187.65,-95.26z"/>
 </g>
</svg>
